<mxfile host="app.diagrams.net" modified="2024-03-11T21:30:31.247Z" agent="Mozilla/5.0 (X11; Linux x86_64) AppleWebKit/537.36 (KHTML, like Gecko) Chrome/122.0.0.0 Safari/537.36" etag="FIL4QR4CCvGEkZs4lRUB" version="24.0.5" type="github">
  <diagram name="Page-1" id="bfe91b75-5d2c-26a0-9c1d-138518896778">
    <mxGraphModel dx="1050" dy="-280" grid="1" gridSize="10" guides="1" tooltips="1" connect="1" arrows="1" fold="1" page="1" pageScale="1" pageWidth="1100" pageHeight="850" background="none" math="0" shadow="0">
      <root>
        <mxCell id="0" />
        <mxCell id="1" parent="0" />
        <mxCell id="uLWC7wdK7wwpcq5XgtSV-15" style="edgeStyle=orthogonalEdgeStyle;rounded=0;orthogonalLoop=1;jettySize=auto;html=1;" parent="1" source="7c3789c024ecab99-61" target="uLWC7wdK7wwpcq5XgtSV-3" edge="1">
          <mxGeometry relative="1" as="geometry" />
        </mxCell>
        <mxCell id="7c3789c024ecab99-61" value="" style="fontColor=#0066CC;verticalAlign=top;verticalLabelPosition=bottom;labelPosition=center;align=center;html=1;fillColor=#CCCCCC;strokeColor=#6881B3;gradientColor=none;gradientDirection=north;strokeWidth=2;shape=mxgraph.networks.pc;rounded=0;shadow=0;comic=0;" parent="1" vertex="1">
          <mxGeometry x="410.0000000000002" y="1112.5017647058826" width="100" height="70" as="geometry" />
        </mxCell>
        <mxCell id="uLWC7wdK7wwpcq5XgtSV-9" style="edgeStyle=orthogonalEdgeStyle;rounded=0;orthogonalLoop=1;jettySize=auto;html=1;" parent="1" source="uLWC7wdK7wwpcq5XgtSV-2" target="uLWC7wdK7wwpcq5XgtSV-8" edge="1">
          <mxGeometry relative="1" as="geometry" />
        </mxCell>
        <mxCell id="uLWC7wdK7wwpcq5XgtSV-35" style="edgeStyle=orthogonalEdgeStyle;rounded=0;orthogonalLoop=1;jettySize=auto;html=1;" parent="1" source="uLWC7wdK7wwpcq5XgtSV-2" target="uLWC7wdK7wwpcq5XgtSV-29" edge="1">
          <mxGeometry relative="1" as="geometry" />
        </mxCell>
        <mxCell id="uLWC7wdK7wwpcq5XgtSV-2" value="" style="fontColor=#0066CC;verticalAlign=top;verticalLabelPosition=bottom;labelPosition=center;align=center;html=1;outlineConnect=0;fillColor=#CCCCCC;strokeColor=#6881B3;gradientColor=none;gradientDirection=north;strokeWidth=2;shape=mxgraph.networks.laptop;" parent="1" vertex="1">
          <mxGeometry x="940" y="1057.5" width="100" height="55" as="geometry" />
        </mxCell>
        <mxCell id="uLWC7wdK7wwpcq5XgtSV-17" value="" style="edgeStyle=orthogonalEdgeStyle;rounded=0;orthogonalLoop=1;jettySize=auto;html=1;" parent="1" source="uLWC7wdK7wwpcq5XgtSV-3" target="uLWC7wdK7wwpcq5XgtSV-8" edge="1">
          <mxGeometry relative="1" as="geometry" />
        </mxCell>
        <mxCell id="uLWC7wdK7wwpcq5XgtSV-3" value="" style="fontColor=#0066CC;verticalAlign=top;verticalLabelPosition=bottom;labelPosition=center;align=center;html=1;outlineConnect=0;fillColor=#CCCCCC;strokeColor=#6881B3;gradientColor=none;gradientDirection=north;strokeWidth=2;shape=mxgraph.networks.firewall;" parent="1" vertex="1">
          <mxGeometry x="610" y="1190" width="100" height="100" as="geometry" />
        </mxCell>
        <mxCell id="uLWC7wdK7wwpcq5XgtSV-20" style="edgeStyle=orthogonalEdgeStyle;rounded=0;orthogonalLoop=1;jettySize=auto;html=1;" parent="1" source="uLWC7wdK7wwpcq5XgtSV-4" target="uLWC7wdK7wwpcq5XgtSV-5" edge="1">
          <mxGeometry relative="1" as="geometry" />
        </mxCell>
        <mxCell id="uLWC7wdK7wwpcq5XgtSV-4" value="" style="fontColor=#0066CC;verticalAlign=top;verticalLabelPosition=bottom;labelPosition=center;align=center;html=1;outlineConnect=0;fillColor=#CCCCCC;strokeColor=#6881B3;gradientColor=none;gradientDirection=north;strokeWidth=2;shape=mxgraph.networks.pc;direction=east;" parent="1" vertex="1">
          <mxGeometry x="120" y="1307.5" width="100" height="90" as="geometry" />
        </mxCell>
        <mxCell id="uLWC7wdK7wwpcq5XgtSV-14" style="edgeStyle=orthogonalEdgeStyle;rounded=0;orthogonalLoop=1;jettySize=auto;html=1;" parent="1" source="uLWC7wdK7wwpcq5XgtSV-5" target="uLWC7wdK7wwpcq5XgtSV-3" edge="1">
          <mxGeometry relative="1" as="geometry" />
        </mxCell>
        <mxCell id="uLWC7wdK7wwpcq5XgtSV-5" value="" style="fontColor=#0066CC;verticalAlign=top;verticalLabelPosition=bottom;labelPosition=center;align=center;html=1;outlineConnect=0;fillColor=#CCCCCC;strokeColor=#6881B3;gradientColor=none;gradientDirection=north;strokeWidth=2;shape=mxgraph.networks.router;" parent="1" vertex="1">
          <mxGeometry x="410" y="1337.5" width="100" height="30" as="geometry" />
        </mxCell>
        <mxCell id="uLWC7wdK7wwpcq5XgtSV-10" style="edgeStyle=orthogonalEdgeStyle;rounded=0;orthogonalLoop=1;jettySize=auto;html=1;" parent="1" source="uLWC7wdK7wwpcq5XgtSV-7" target="uLWC7wdK7wwpcq5XgtSV-8" edge="1">
          <mxGeometry relative="1" as="geometry" />
        </mxCell>
        <mxCell id="uLWC7wdK7wwpcq5XgtSV-26" style="edgeStyle=orthogonalEdgeStyle;rounded=0;orthogonalLoop=1;jettySize=auto;html=1;" parent="1" source="uLWC7wdK7wwpcq5XgtSV-7" target="uLWC7wdK7wwpcq5XgtSV-21" edge="1">
          <mxGeometry relative="1" as="geometry" />
        </mxCell>
        <mxCell id="uLWC7wdK7wwpcq5XgtSV-7" value="" style="fontColor=#0066CC;verticalAlign=top;verticalLabelPosition=bottom;labelPosition=center;align=center;html=1;outlineConnect=0;fillColor=#CCCCCC;strokeColor=#6881B3;gradientColor=none;gradientDirection=north;strokeWidth=2;shape=mxgraph.networks.laptop;" parent="1" vertex="1">
          <mxGeometry x="940" y="1367.5" width="100" height="55" as="geometry" />
        </mxCell>
        <mxCell id="uLWC7wdK7wwpcq5XgtSV-8" value="" style="html=1;outlineConnect=0;fillColor=#CCCCCC;strokeColor=#6881B3;gradientColor=none;gradientDirection=north;strokeWidth=2;shape=mxgraph.networks.cloud;fontColor=#ffffff;" parent="1" vertex="1">
          <mxGeometry x="780" y="1215" width="90" height="50" as="geometry" />
        </mxCell>
        <mxCell id="uLWC7wdK7wwpcq5XgtSV-27" style="edgeStyle=orthogonalEdgeStyle;rounded=0;orthogonalLoop=1;jettySize=auto;html=1;exitX=0;exitY=0.5;exitDx=0;exitDy=0;" parent="1" source="uLWC7wdK7wwpcq5XgtSV-21" target="uLWC7wdK7wwpcq5XgtSV-5" edge="1">
          <mxGeometry relative="1" as="geometry" />
        </mxCell>
        <mxCell id="uLWC7wdK7wwpcq5XgtSV-21" value="&lt;h1&gt;SSH&lt;/h1&gt;" style="shape=ext;double=1;rounded=1;whiteSpace=wrap;html=1;" parent="1" vertex="1">
          <mxGeometry x="930" y="1510" width="120" height="70" as="geometry" />
        </mxCell>
        <mxCell id="uLWC7wdK7wwpcq5XgtSV-34" style="edgeStyle=orthogonalEdgeStyle;rounded=0;orthogonalLoop=1;jettySize=auto;html=1;" parent="1" source="uLWC7wdK7wwpcq5XgtSV-29" target="uLWC7wdK7wwpcq5XgtSV-33" edge="1">
          <mxGeometry relative="1" as="geometry" />
        </mxCell>
        <mxCell id="uLWC7wdK7wwpcq5XgtSV-29" value="&lt;h1&gt;VPN&lt;/h1&gt;" style="shape=ext;double=1;rounded=1;whiteSpace=wrap;html=1;" parent="1" vertex="1">
          <mxGeometry x="935" y="910" width="110" height="80" as="geometry" />
        </mxCell>
        <mxCell id="uLWC7wdK7wwpcq5XgtSV-32" value="" style="shape=ext;double=1;rounded=0;whiteSpace=wrap;html=1;fillColor=none;strokeColor=#FF8000;strokeWidth=3;" parent="1" vertex="1">
          <mxGeometry x="80" y="1230" width="490" height="245" as="geometry" />
        </mxCell>
        <mxCell id="uLWC7wdK7wwpcq5XgtSV-33" value="" style="shape=ext;double=1;rounded=0;whiteSpace=wrap;html=1;fillColor=none;strokeColor=#3700B8;strokeWidth=3;" parent="1" vertex="1">
          <mxGeometry x="360" y="1080" width="390" height="360" as="geometry" />
        </mxCell>
        <mxCell id="lElvdPPClOJ8bQgfkrCE-1" value="" style="rounded=0;whiteSpace=wrap;html=1;fillColor=none;strokeColor=#00FF00;strokeWidth=3;" parent="1" vertex="1">
          <mxGeometry x="590" y="1040" width="490" height="420" as="geometry" />
        </mxCell>
        <mxCell id="NdHpTrMuae8Z-KV8Prhb-1" value="My PC&lt;div&gt;&lt;span style=&quot;font-family:monospace&quot;&gt;&lt;span style=&quot;background-color: rgb(255, 255, 255);&quot;&gt;DHCP&lt;/span&gt;&lt;/span&gt;&lt;/div&gt;" style="text;html=1;align=center;verticalAlign=middle;whiteSpace=wrap;rounded=0;fontStyle=1" parent="1" vertex="1">
          <mxGeometry x="950.5" y="1375" width="80" height="22.5" as="geometry" />
        </mxCell>
        <mxCell id="T8XU95b1Kn1NTzEVheik-1" value="&lt;b&gt;Linux Client&lt;/b&gt;&lt;div&gt;&lt;b&gt;DHCP&lt;/b&gt;&lt;/div&gt;" style="text;html=1;align=center;verticalAlign=middle;whiteSpace=wrap;rounded=0;" parent="1" vertex="1">
          <mxGeometry x="950.5" y="1060" width="79.5" height="30" as="geometry" />
        </mxCell>
        <mxCell id="3YFUOiE6rbATWzhRF5x2-1" value="&lt;b&gt;Windows 2&lt;/b&gt;&lt;div&gt;&lt;b&gt;&amp;nbsp;192.168.222.2&lt;/b&gt;&lt;/div&gt;" style="text;html=1;align=center;verticalAlign=middle;whiteSpace=wrap;rounded=0;" parent="1" vertex="1">
          <mxGeometry x="140" y="1330" width="80" height="30" as="geometry" />
        </mxCell>
        <mxCell id="3YFUOiE6rbATWzhRF5x2-2" value="&lt;b&gt;Windows 1 DHCP&amp;nbsp;&lt;/b&gt;" style="text;html=1;align=center;verticalAlign=middle;whiteSpace=wrap;rounded=0;" parent="1" vertex="1">
          <mxGeometry x="430" y="1130" width="80" height="20" as="geometry" />
        </mxCell>
        <mxCell id="zMMUamfjsOr0x_MEFhgT-9" style="edgeStyle=orthogonalEdgeStyle;rounded=0;orthogonalLoop=1;jettySize=auto;html=1;" edge="1" parent="1" source="3YFUOiE6rbATWzhRF5x2-4">
          <mxGeometry relative="1" as="geometry">
            <mxPoint x="135" y="1220" as="targetPoint" />
          </mxGeometry>
        </mxCell>
        <mxCell id="3YFUOiE6rbATWzhRF5x2-4" value="&lt;b&gt;LAN 192.168.222.0/24&lt;/b&gt;&lt;div&gt;&lt;b&gt;DGW:&amp;nbsp;&lt;/b&gt;&lt;b style=&quot;background-color: initial;&quot;&gt;192.168.222.1&lt;/b&gt;&lt;/div&gt;" style="text;html=1;align=center;verticalAlign=middle;whiteSpace=wrap;rounded=0;" parent="1" vertex="1">
          <mxGeometry x="60" y="1150" width="150" height="30" as="geometry" />
        </mxCell>
        <mxCell id="zMMUamfjsOr0x_MEFhgT-8" style="edgeStyle=orthogonalEdgeStyle;rounded=0;orthogonalLoop=1;jettySize=auto;html=1;" edge="1" parent="1" source="3YFUOiE6rbATWzhRF5x2-7">
          <mxGeometry relative="1" as="geometry">
            <mxPoint x="365" y="1070" as="targetPoint" />
          </mxGeometry>
        </mxCell>
        <mxCell id="3YFUOiE6rbATWzhRF5x2-7" value="&lt;b&gt;LAN 192.168.111.0/24&lt;/b&gt;&lt;div&gt;&lt;b&gt;DGW: 192.168.111.2&lt;/b&gt;&lt;/div&gt;" style="text;html=1;align=center;verticalAlign=middle;whiteSpace=wrap;rounded=0;" parent="1" vertex="1">
          <mxGeometry x="280" y="1000" width="170" height="30" as="geometry" />
        </mxCell>
        <mxCell id="3YFUOiE6rbATWzhRF5x2-9" value="&lt;span style=&quot;font-family: monospace; font-weight: 700; background-color: rgb(255, 255, 255);&quot;&gt;172.72.99.121 port 2222&lt;/span&gt;" style="text;html=1;align=center;verticalAlign=middle;whiteSpace=wrap;rounded=0;" parent="1" vertex="1">
          <mxGeometry x="955.5" y="1600" width="70" height="30" as="geometry" />
        </mxCell>
        <mxCell id="3YFUOiE6rbATWzhRF5x2-14" value="&lt;div&gt;&lt;b style=&quot;background-color: initial;&quot;&gt;Tunnel Network 192.168.1.0&lt;/b&gt;&lt;/div&gt;" style="text;html=1;align=center;verticalAlign=middle;whiteSpace=wrap;rounded=0;" parent="1" vertex="1">
          <mxGeometry x="710" y="910" width="160" height="30" as="geometry" />
        </mxCell>
        <mxCell id="zMMUamfjsOr0x_MEFhgT-4" value="&lt;b&gt;NAT 192.168.111.1&lt;/b&gt;" style="text;html=1;align=center;verticalAlign=middle;whiteSpace=wrap;rounded=0;" vertex="1" parent="1">
          <mxGeometry x="695" y="1560" width="110" height="30" as="geometry" />
        </mxCell>
        <mxCell id="zMMUamfjsOr0x_MEFhgT-6" value="&lt;b&gt;eth0: 192.168.111.1&lt;/b&gt;&lt;div&gt;&lt;b&gt;eth1: 192.168.222.1&lt;/b&gt;&lt;/div&gt;" style="text;html=1;align=center;verticalAlign=middle;whiteSpace=wrap;rounded=0;" vertex="1" parent="1">
          <mxGeometry x="400" y="1280" width="130" height="58" as="geometry" />
        </mxCell>
        <mxCell id="zMMUamfjsOr0x_MEFhgT-7" value="&lt;b&gt;eth0:&amp;nbsp;&lt;/b&gt;&lt;span style=&quot;font-family: monospace; font-weight: 700; background-color: rgb(255, 255, 255);&quot;&gt;172.72.99.121&lt;/span&gt;&lt;div&gt;&lt;b style=&quot;background-color: initial;&quot;&gt;eth1: 192.168.111.2&lt;/b&gt;&lt;/div&gt;" style="text;html=1;align=center;verticalAlign=middle;whiteSpace=wrap;rounded=0;" vertex="1" parent="1">
          <mxGeometry x="570" y="1200" width="180" height="80" as="geometry" />
        </mxCell>
        <mxCell id="zMMUamfjsOr0x_MEFhgT-11" style="edgeStyle=orthogonalEdgeStyle;rounded=0;orthogonalLoop=1;jettySize=auto;html=1;" edge="1" parent="1" source="zMMUamfjsOr0x_MEFhgT-10">
          <mxGeometry relative="1" as="geometry">
            <mxPoint x="640" y="1030" as="targetPoint" />
          </mxGeometry>
        </mxCell>
        <mxCell id="zMMUamfjsOr0x_MEFhgT-10" value="&lt;b&gt;WAN&amp;nbsp;172.72.0.0/16&lt;/b&gt;&lt;div&gt;&lt;b&gt;DGW:&amp;nbsp;172.72.0.10&lt;/b&gt;&lt;/div&gt;" style="text;html=1;align=center;verticalAlign=middle;whiteSpace=wrap;rounded=0;" vertex="1" parent="1">
          <mxGeometry x="610" y="980" width="60" height="30" as="geometry" />
        </mxCell>
      </root>
    </mxGraphModel>
  </diagram>
</mxfile>
